<mxfile host="app.diagrams.net" modified="2023-06-05T13:51:58.649Z" agent="Mozilla/5.0 (X11; Linux x86_64) AppleWebKit/537.36 (KHTML, like Gecko) Chrome/114.0.0.0 Safari/537.36" etag="hbNeVvJfceC989qwWEwh" version="21.3.7" type="github">
  <diagram id="C5RBs43oDa-KdzZeNtuy" name="Page-1">
    <mxGraphModel dx="1426" dy="789" grid="1" gridSize="10" guides="1" tooltips="1" connect="1" arrows="1" fold="1" page="1" pageScale="1" pageWidth="827" pageHeight="1169" math="0" shadow="0">
      <root>
        <mxCell id="WIyWlLk6GJQsqaUBKTNV-0" />
        <mxCell id="WIyWlLk6GJQsqaUBKTNV-1" parent="WIyWlLk6GJQsqaUBKTNV-0" />
        <mxCell id="9UxEub91nrfp-Pejf8r--5" style="edgeStyle=orthogonalEdgeStyle;rounded=0;orthogonalLoop=1;jettySize=auto;html=1;" edge="1" parent="WIyWlLk6GJQsqaUBKTNV-1" source="WIyWlLk6GJQsqaUBKTNV-3" target="9UxEub91nrfp-Pejf8r--0">
          <mxGeometry relative="1" as="geometry" />
        </mxCell>
        <mxCell id="WIyWlLk6GJQsqaUBKTNV-3" value="create a word" style="rounded=1;whiteSpace=wrap;html=1;fontSize=12;glass=0;strokeWidth=1;shadow=0;" parent="WIyWlLk6GJQsqaUBKTNV-1" vertex="1">
          <mxGeometry x="305" y="70" width="120" height="40" as="geometry" />
        </mxCell>
        <mxCell id="9UxEub91nrfp-Pejf8r--40" value="While word not full orÂ  not death" style="group" vertex="1" connectable="0" parent="WIyWlLk6GJQsqaUBKTNV-1">
          <mxGeometry x="110" y="150" width="520" height="360" as="geometry" />
        </mxCell>
        <mxCell id="9UxEub91nrfp-Pejf8r--0" value="player input letter" style="rounded=0;whiteSpace=wrap;html=1;points=[[0,0,0,0,0],[0,0.25,0,0,0],[0,0.5,0,0,0],[0,0.75,0,0,0],[0,1,0,0,0],[0.25,0,0,0,0],[0.25,1,0,0,0],[0.5,0,0,0,0],[0.5,1,0,0,0],[0.75,0,0,0,0],[0.75,1,0,0,0],[1,0,0,0,0],[1,0.25,0,0,0],[1,0.5,0,0,0],[1,0.75,0,0,0],[1,1,0,0,0]];direction=west;" vertex="1" parent="9UxEub91nrfp-Pejf8r--40">
          <mxGeometry x="166.45833333333331" y="67.53103448275861" width="157.08333333333331" height="59.50413223140496" as="geometry" />
        </mxCell>
        <mxCell id="9UxEub91nrfp-Pejf8r--9" value="check if lettter in word&amp;nbsp;" style="ellipse;whiteSpace=wrap;html=1;" vertex="1" parent="9UxEub91nrfp-Pejf8r--40">
          <mxGeometry x="190" y="175.53636933599316" width="130" height="95.20661157024794" as="geometry" />
        </mxCell>
        <mxCell id="9UxEub91nrfp-Pejf8r--10" style="edgeStyle=orthogonalEdgeStyle;rounded=0;orthogonalLoop=1;jettySize=auto;html=1;" edge="1" parent="9UxEub91nrfp-Pejf8r--40" source="9UxEub91nrfp-Pejf8r--0" target="9UxEub91nrfp-Pejf8r--9">
          <mxGeometry relative="1" as="geometry" />
        </mxCell>
        <mxCell id="9UxEub91nrfp-Pejf8r--33" value="" style="edgeStyle=orthogonalEdgeStyle;rounded=0;orthogonalLoop=1;jettySize=auto;html=1;exitX=0.5;exitY=0;exitDx=0;exitDy=0;entryX=1;entryY=0.5;entryDx=0;entryDy=0;entryPerimeter=0;" edge="1" parent="9UxEub91nrfp-Pejf8r--40" source="9UxEub91nrfp-Pejf8r--11" target="9UxEub91nrfp-Pejf8r--0">
          <mxGeometry relative="1" as="geometry">
            <mxPoint x="86.66666666666666" y="59.50413223140496" as="targetPoint" />
            <Array as="points">
              <mxPoint x="65" y="271.1172413793103" />
              <mxPoint x="65" y="87.39310344827587" />
            </Array>
          </mxGeometry>
        </mxCell>
        <mxCell id="9UxEub91nrfp-Pejf8r--11" value="display the letter on the screen" style="rounded=1;whiteSpace=wrap;html=1;direction=east;" vertex="1" parent="9UxEub91nrfp-Pejf8r--40">
          <mxGeometry y="270.74380165289256" width="119.16666666666666" height="89.25619834710744" as="geometry" />
        </mxCell>
        <mxCell id="9UxEub91nrfp-Pejf8r--12" value="true" style="edgeStyle=orthogonalEdgeStyle;rounded=0;orthogonalLoop=1;jettySize=auto;html=1;entryX=1;entryY=0.5;entryDx=0;entryDy=0;" edge="1" parent="9UxEub91nrfp-Pejf8r--40" source="9UxEub91nrfp-Pejf8r--9" target="9UxEub91nrfp-Pejf8r--11">
          <mxGeometry relative="1" as="geometry" />
        </mxCell>
        <mxCell id="9UxEub91nrfp-Pejf8r--36" style="edgeStyle=orthogonalEdgeStyle;rounded=0;orthogonalLoop=1;jettySize=auto;html=1;exitX=0.5;exitY=0;exitDx=0;exitDy=0;entryX=0;entryY=0.5;entryDx=0;entryDy=0;entryPerimeter=0;" edge="1" parent="9UxEub91nrfp-Pejf8r--40" source="9UxEub91nrfp-Pejf8r--34" target="9UxEub91nrfp-Pejf8r--0">
          <mxGeometry relative="1" as="geometry" />
        </mxCell>
        <mxCell id="9UxEub91nrfp-Pejf8r--34" value="&lt;ol&gt;&lt;li&gt;-1 life&lt;/li&gt;&lt;li&gt;draw stickman&lt;/li&gt;&lt;/ol&gt;" style="rounded=1;whiteSpace=wrap;html=1;align=left;" vertex="1" parent="9UxEub91nrfp-Pejf8r--40">
          <mxGeometry x="390" y="279.6694214876033" width="130" height="71.40495867768594" as="geometry" />
        </mxCell>
        <mxCell id="9UxEub91nrfp-Pejf8r--37" value="false" style="edgeStyle=orthogonalEdgeStyle;rounded=0;orthogonalLoop=1;jettySize=auto;html=1;entryX=0;entryY=0.5;entryDx=0;entryDy=0;" edge="1" parent="9UxEub91nrfp-Pejf8r--40" source="9UxEub91nrfp-Pejf8r--9" target="9UxEub91nrfp-Pejf8r--34">
          <mxGeometry relative="1" as="geometry" />
        </mxCell>
        <mxCell id="9UxEub91nrfp-Pejf8r--50" value="" style="group" vertex="1" connectable="0" parent="WIyWlLk6GJQsqaUBKTNV-1">
          <mxGeometry x="200" y="580" width="480" height="120" as="geometry" />
        </mxCell>
        <mxCell id="9UxEub91nrfp-Pejf8r--44" value="EG" style="rhombus;whiteSpace=wrap;html=1;sketch=1;hachureGap=4;jiggle=2;curveFitting=1;fontFamily=Architects Daughter;fontSource=https%3A%2F%2Ffonts.googleapis.com%2Fcss%3Ffamily%3DArchitects%2BDaughter;fontSize=20;" vertex="1" parent="9UxEub91nrfp-Pejf8r--50">
          <mxGeometry x="196.36363636363635" width="87.27272727272727" height="120" as="geometry" />
        </mxCell>
        <mxCell id="9UxEub91nrfp-Pejf8r--46" value="congra if full of word are display" style="rounded=1;whiteSpace=wrap;html=1;fontSize=20;fontFamily=Architects Daughter;sketch=1;hachureGap=4;jiggle=2;curveFitting=1;fontSource=https%3A%2F%2Ffonts.googleapis.com%2Fcss%3Ffamily%3DArchitects%2BDaughter;" vertex="1" parent="9UxEub91nrfp-Pejf8r--50">
          <mxGeometry y="15" width="130.9090909090909" height="90" as="geometry" />
        </mxCell>
        <mxCell id="9UxEub91nrfp-Pejf8r--47" value="" style="edgeStyle=orthogonalEdgeStyle;rounded=0;sketch=1;hachureGap=4;jiggle=2;curveFitting=1;orthogonalLoop=1;jettySize=auto;html=1;fontFamily=Architects Daughter;fontSource=https%3A%2F%2Ffonts.googleapis.com%2Fcss%3Ffamily%3DArchitects%2BDaughter;fontSize=16;" edge="1" parent="9UxEub91nrfp-Pejf8r--50" source="9UxEub91nrfp-Pejf8r--44" target="9UxEub91nrfp-Pejf8r--46">
          <mxGeometry relative="1" as="geometry" />
        </mxCell>
        <mxCell id="9UxEub91nrfp-Pejf8r--48" value="your stickman dead" style="rounded=1;whiteSpace=wrap;html=1;fontSize=20;fontFamily=Architects Daughter;sketch=1;hachureGap=4;jiggle=2;curveFitting=1;fontSource=https%3A%2F%2Ffonts.googleapis.com%2Fcss%3Ffamily%3DArchitects%2BDaughter;" vertex="1" parent="9UxEub91nrfp-Pejf8r--50">
          <mxGeometry x="349.09090909090907" y="15" width="130.9090909090909" height="90" as="geometry" />
        </mxCell>
        <mxCell id="9UxEub91nrfp-Pejf8r--49" value="" style="edgeStyle=orthogonalEdgeStyle;rounded=0;sketch=1;hachureGap=4;jiggle=2;curveFitting=1;orthogonalLoop=1;jettySize=auto;html=1;fontFamily=Architects Daughter;fontSource=https%3A%2F%2Ffonts.googleapis.com%2Fcss%3Ffamily%3DArchitects%2BDaughter;fontSize=16;" edge="1" parent="9UxEub91nrfp-Pejf8r--50" source="9UxEub91nrfp-Pejf8r--44" target="9UxEub91nrfp-Pejf8r--48">
          <mxGeometry relative="1" as="geometry" />
        </mxCell>
      </root>
    </mxGraphModel>
  </diagram>
</mxfile>
